<?xml version="1.0" encoding="utf-8"?>
<!-- Generator: Adobe Illustrator 15.1.0, SVG Export Plug-In . SVG Version: 6.00 Build 0)  -->
<!DOCTYPE svg PUBLIC "-//W3C//DTD SVG 1.1 Tiny//EN" "http://www.w3.org/Graphics/SVG/1.1/DTD/svg11-tiny.dtd">
<svg version="1.1" baseProfile="tiny" id="Layer_3" xmlns="http://www.w3.org/2000/svg" xmlns:xlink="http://www.w3.org/1999/xlink"
	 x="0px" y="0px" width="20px" height="20px" viewBox="0 0 20 20" xml:space="preserve">
<g>
	<path fill="#FFFFFF" d="M15.636,6.855v1.537l3.729-2.664l-3.729-2.663v1.536h-3.44c-0.293,0-0.575,0.115-0.785,0.319l-7.493,7.286
		H0v2.254h4.375c0.293,0,0.575-0.114,0.786-0.319l7.493-7.286H15.636z"/>
	<path fill="#FFFFFF" d="M15.636,12.207h-2.982l-1.946-1.893l-1.616,1.572l2.319,2.255c0.21,0.205,0.492,0.319,0.785,0.319h3.44
		v1.595l3.729-2.664l-3.729-2.663V12.207z"/>
	<path fill="#FFFFFF" d="M5.863,8.748l1.616-1.572L5.161,4.921C4.95,4.716,4.668,4.602,4.375,4.602H0v2.254h3.917L5.863,8.748z"/>
</g>
</svg>
