<?xml version="1.0" encoding="utf-8"?>
<!-- Generator: Adobe Illustrator 15.1.0, SVG Export Plug-In . SVG Version: 6.00 Build 0)  -->
<!DOCTYPE svg PUBLIC "-//W3C//DTD SVG 1.1 Tiny//EN" "http://www.w3.org/Graphics/SVG/1.1/DTD/svg11-tiny.dtd">
<svg version="1.1" baseProfile="tiny" xmlns="http://www.w3.org/2000/svg" xmlns:xlink="http://www.w3.org/1999/xlink" x="0px"
	 y="0px" width="55px" height="55px" viewBox="0 0 55 55" xml:space="preserve">
<g id="Layer_1" display="none">
	<image display="inline" width="55" height="55" xlink:href="../Site/icon/coffeeshop_55x55.png" >
	</image>
</g>
<g id="Layer_2" display="none">
	<path display="inline" d="M27,42.388c0,0-5.063-0.24-7.617,1.809c-1.439,1.154-1.525,3.413-1.525,3.413H27V42.388z"/>
	<path display="inline" d="M9.617,22.635H27v13.453C27,36.088,9.617,35.486,9.617,22.635z"/>
	<path display="inline" d="M24.119,42.557c0,0,3.187-3.515-0.771-7.02c-3.957-3.507,3.076-0.522,3.076-0.522v9.308"/>
	<path display="inline" d="M27,42.388c0,0,5.063-0.24,7.616,1.809c1.439,1.154,1.525,3.413,1.525,3.413H27V42.388z"/>
	<path display="inline" d="M44.383,22.635H27v13.453C27,36.088,44.383,35.486,44.383,22.635z"/>
	<path display="inline" d="M30.06,42.557c0,0-3.361-3.515,0.813-7.02c4.176-3.507-3.245-0.522-3.245-0.522v9.308"/>
	<path display="inline" fill="none" stroke="#000000" stroke-width="2.2536" stroke-linecap="square" stroke-miterlimit="10" d="
		M38.309,14.773"/>
	<path display="inline" fill="none" stroke="#000000" stroke-width="2.2536" stroke-miterlimit="10" d="M27,22.635V12.482
		c0,0,0-5.572-5.812-5.572c-5.498,0-5.498,7.317-5.498,7.317"/>
	<rect x="25.9" y="35.359" display="inline" width="2.226" height="7.808"/>
	<ellipse display="inline" cx="12.5" cy="16.032" rx="1.313" ry="1.258"/>
	<ellipse display="inline" cx="16.996" cy="18.548" rx="1.313" ry="1.258"/>
	<path display="inline" fill="none" stroke="#000000" stroke-width="2.2536" stroke-miterlimit="10" d="M27,22.635V12.482
		c0,0,0-5.572,5.812-5.572c5.497,0,5.497,6.118,5.497,6.118"/>
	<ellipse display="inline" cx="34.379" cy="15.725" rx="1.313" ry="1.258"/>
	<ellipse display="inline" cx="42.82" cy="14.048" rx="1.313" ry="1.259"/>
	<ellipse display="inline" cx="38.976" cy="17.922" rx="1.313" ry="1.258"/>
</g>
<g id="Layer_5">
	<path d="M7.104,22.448c0,0,4.393-0.258,5.329-1.484c0.8-1.048,4.734-5.307,8.798-0.45c0,0,3.303,3.963,7.663,4.889
		c4.817,1.022,12.287-0.132,15.325-5.879c0,0,0.969,19.154-15.031,19.154c-10.569,0-15.729-11.729-15.729-11.729
		S10.635,22.667,7.104,22.448z"/>
	<path d="M21.65,28.236c0,0,0.563-7.166,14.396-12.676c0,0,1.786,11.655-3.331,14.879"/>
</g>
<g id="Layer_4" display="none">
	<path display="inline" d="M112.054,19.49c0,0,8.127,4.041,17.585-6.777c0,0,5.25,9.625-1.734,15.743"/>
</g>
</svg>
