<?xml version="1.0" encoding="utf-8"?>
<!-- Generator: Adobe Illustrator 15.1.0, SVG Export Plug-In . SVG Version: 6.00 Build 0)  -->
<!DOCTYPE svg PUBLIC "-//W3C//DTD SVG 1.1 Tiny//EN" "http://www.w3.org/Graphics/SVG/1.1/DTD/svg11-tiny.dtd">
<svg version="1.1" baseProfile="tiny" xmlns="http://www.w3.org/2000/svg" xmlns:xlink="http://www.w3.org/1999/xlink" x="0px"
	 y="0px" width="55px" height="55px" viewBox="0 0 55 55" xml:space="preserve">
<g id="Layer_1" display="none">
	<image display="inline" width="55" height="55" xlink:href="../Site/icon/coffeeshop_55x55.png" >
	</image>
</g>
<g id="Layer_4" display="none">
	<image display="inline" width="55" height="55" xlink:href="../Site/icon/waves_55x55.png" >
	</image>
</g>
<g id="Layer_3" display="none">
	
		<line display="inline" fill="none" stroke="#000000" stroke-width="2.2536" stroke-miterlimit="10" x1="7.332" y1="47.586" x2="47.668" y2="47.586"/>
	<path display="inline" d="M12.669,47.601c0,0-0.35-11.361,6.3-17.495c0,0-3.151,7.904-3.151,17.495"/>
	<path display="inline" d="M18.973,47.601c0,0-0.35-11.361,6.299-17.495c0,0-3.152,7.904-3.152,17.495"/>
	<path display="inline" d="M25.275,47.601c0,0-0.35-11.361,6.3-17.495c0,0-3.152,7.904-3.152,17.495"/>
	<path display="inline" d="M31.578,47.601c0,0-0.35-11.361,6.3-17.496c0,0-3.152,7.905-3.152,17.496"/>
	<path display="inline" d="M37.882,47.621c0,0-0.351-11.361,6.299-17.494c0,0-3.151,7.904-3.151,17.494"/>
	<path display="inline" d="M19.516,8.358c0,0,0.064,3.482-3.547,3.482c0,0,3.547,0.073,3.547,3.506"/>
	<path display="inline" d="M19.516,8.358c0,0-0.064,3.482,3.547,3.482c0,0-3.547,0.073-3.547,3.506"/>
	<path display="inline" d="M43.504,13.322c0,0,0.063,3.482-3.547,3.482c0,0,3.547,0.073,3.547,3.506"/>
	<path display="inline" d="M43.504,13.322c0,0-0.063,3.482,3.547,3.482c0,0-3.547,0.073-3.547,3.506"/>
	<path display="inline" d="M29.686,16.816c0,0,0.063,3.482-3.548,3.482c0,0,3.548,0.073,3.548,3.506"/>
	<path display="inline" d="M29.686,16.816c0,0-0.064,3.482,3.547,3.482c0,0-3.547,0.073-3.547,3.506"/>
	<path display="inline" d="M33.512,5.604c0,0,0.063,3.482-3.547,3.482c0,0,3.547,0.073,3.547,3.506"/>
	<path display="inline" d="M33.512,5.604c0,0-0.063,3.482,3.547,3.482c0,0-3.547,0.073-3.547,3.506"/>
	<path display="inline" d="M10.906,15.876c0,0,0.064,3.482-3.547,3.482c0,0,3.547,0.073,3.547,3.506"/>
	<path display="inline" d="M10.906,15.876c0,0-0.064,3.482,3.547,3.482c0,0-3.547,0.073-3.547,3.506"/>
</g>
<g id="Layer_5">
	<path d="M17.413,5.164c0,0,0.064,3.482-3.546,3.482c0,0,3.546,0.073,3.546,3.506"/>
	<path d="M17.413,5.164c0,0-0.063,3.482,3.547,3.482c0,0-3.547,0.073-3.547,3.506"/>
	<path d="M47.025,30.474c0,0,0.063,3.482-3.547,3.482c0,0,3.547,0.072,3.547,3.506"/>
	<path d="M47.025,30.474c0,0-0.063,3.482,3.547,3.482c0,0-3.547,0.072-3.547,3.506"/>
	<path d="M40.26,8.658c0,0,0.063,3.482-3.548,3.482c0,0,3.548,0.072,3.548,3.506"/>
	<path d="M40.26,8.658c0,0-0.064,3.482,3.547,3.482c0,0-3.547,0.072-3.547,3.506"/>
	<path d="M9.218,14.48c0,0,0.064,3.482-3.547,3.482c0,0,3.547,0.073,3.547,3.507"/>
	<path d="M9.218,14.48c0,0-0.064,3.482,3.547,3.482c0,0-3.547,0.073-3.547,3.507"/>
	<path d="M14.539,40.83c0,0,0.063,3.482-3.548,3.482c0,0,3.548,0.072,3.548,3.506"/>
	<path d="M14.539,40.83c0,0-0.064,3.482,3.547,3.482c0,0-3.547,0.072-3.547,3.506"/>
	<path d="M37.514,39.199c0,0,0.063,3.482-3.547,3.482c0,0,3.547,0.072,3.547,3.506"/>
	<path d="M37.514,39.199c0,0-0.063,3.482,3.547,3.482c0,0-3.547,0.072-3.547,3.506"/>
	<path d="M29.383,13.479c-1.077-0.395-2.171-0.624-3.262-0.729c5.018,3.196,7.323,9.548,5.189,15.361
		c-2.135,5.813-8.003,9.164-13.896,8.352c0.898,0.627,1.881,1.161,2.957,1.557c6.776,2.488,14.288-0.987,16.777-7.766
		C39.637,23.478,36.158,15.968,29.383,13.479z"/>
</g>
</svg>
