<svg baseProfile="tiny" xmlns="http://www.w3.org/2000/svg" width="20" height="20"><path fill="#FFF" d="M18.519 4.716a6.97 6.97 0 0 1-2.007.55 3.503 3.503 0 0 0 1.536-1.933c-.676.4-1.423.691-2.22.847a3.495 3.495 0 0 0-5.956 3.187 9.92 9.92 0 0 1-7.205-3.651 3.498 3.498 0 0 0 1.082 4.668 3.491 3.491 0 0 1-1.583-.437v.043a3.498 3.498 0 0 0 2.805 3.428 3.412 3.412 0 0 1-.921.123 3.38 3.38 0 0 1-.657-.063 3.494 3.494 0 0 0 3.265 2.426 7.011 7.011 0 0 1-4.341 1.497c-.282 0-.561-.016-.834-.048a9.907 9.907 0 0 0 5.358 1.569c6.43 0 9.945-5.325 9.945-9.945 0-.152-.003-.303-.009-.452a7.101 7.101 0 0 0 1.742-1.809"/></svg>