<?xml version="1.0" encoding="utf-8"?>
<!-- Generator: Adobe Illustrator 15.1.0, SVG Export Plug-In . SVG Version: 6.00 Build 0)  -->
<!DOCTYPE svg PUBLIC "-//W3C//DTD SVG 1.1 Tiny//EN" "http://www.w3.org/Graphics/SVG/1.1/DTD/svg11-tiny.dtd">
<svg version="1.1" baseProfile="tiny" xmlns="http://www.w3.org/2000/svg" xmlns:xlink="http://www.w3.org/1999/xlink" x="0px"
	 y="0px" width="55px" height="55px" viewBox="0 0 55 55" xml:space="preserve">
<g id="Layer_1" display="none">
	<image display="inline" width="55" height="55" xlink:href="../Site/icon/coffeeshop_55x55.png" >
	</image>
</g>
<g id="Layer_2" display="none">
	<path display="inline" d="M27,42.388c0,0-5.063-0.24-7.617,1.809c-1.439,1.154-1.525,3.413-1.525,3.413H27V42.388z"/>
	<path display="inline" d="M9.617,22.635H27v13.453C27,36.088,9.617,35.486,9.617,22.635z"/>
	<path display="inline" d="M24.119,42.557c0,0,3.187-3.515-0.771-7.02c-3.957-3.507,3.076-0.522,3.076-0.522v9.308"/>
	<path display="inline" d="M27,42.388c0,0,5.063-0.24,7.616,1.809c1.439,1.154,1.525,3.413,1.525,3.413H27V42.388z"/>
	<path display="inline" d="M44.383,22.635H27v13.453C27,36.088,44.383,35.486,44.383,22.635z"/>
	<path display="inline" d="M30.06,42.557c0,0-3.361-3.515,0.813-7.02c4.176-3.507-3.245-0.522-3.245-0.522v9.308"/>
	<path display="inline" fill="none" stroke="#000000" stroke-width="2.2536" stroke-linecap="square" stroke-miterlimit="10" d="
		M38.309,14.773"/>
	<path display="inline" fill="none" stroke="#000000" stroke-width="2.2536" stroke-miterlimit="10" d="M27,22.635V12.482
		c0,0,0-5.572-5.812-5.572c-5.498,0-5.498,7.317-5.498,7.317"/>
	<rect x="25.9" y="35.359" display="inline" width="2.226" height="7.808"/>
	<ellipse display="inline" cx="12.5" cy="16.032" rx="1.313" ry="1.258"/>
	<ellipse display="inline" cx="16.996" cy="18.548" rx="1.313" ry="1.258"/>
	<path display="inline" fill="none" stroke="#000000" stroke-width="2.2536" stroke-miterlimit="10" d="M27,22.635V12.482
		c0,0,0-5.572,5.812-5.572c5.497,0,5.497,6.118,5.497,6.118"/>
	<ellipse display="inline" cx="34.379" cy="15.725" rx="1.313" ry="1.258"/>
	<ellipse display="inline" cx="42.82" cy="14.048" rx="1.313" ry="1.259"/>
	<ellipse display="inline" cx="38.976" cy="17.922" rx="1.313" ry="1.258"/>
</g>
<g id="Layer_5" display="none">
	<path display="inline" d="M31.885,21.559c1.918,5.08,1.677,7.783,0.532,9.144c-2.358-1.062-4.785-3.222-4.323-7.608
		c0,0,0.844-6.719-1.906-12.385C25.253,22.125,14.069,25.924,14.069,36.81c0,5.403,4.264,9.931,10.033,11.235
		c-1.398-0.98-2.028-2.62-1.917-4.494c0.124-2.089,0.435-3.769,4.286-8.906c0.117,4.077,1.355,4.716,2.59,5.266
		c2.379,1.061,3.444,1.935,3.654,4.252c0.158,1.742-0.907,3.177-2.416,4.016c6.073-1.115,10.632-5.778,10.632-11.368
		C40.931,26.038,31.885,21.559,31.885,21.559z"/>
</g>
<g id="Layer_4">
	<rect x="20.6" y="13.875" width="3.497" height="27.25"/>
	<rect x="30.902" y="13.875" width="3.497" height="27.25"/>
</g>
</svg>
