<svg baseProfile="tiny" xmlns="http://www.w3.org/2000/svg" width="55" height="55"><path d="M31.885 21.559c1.918 5.08 1.677 7.783.532 9.144-2.358-1.062-4.785-3.222-4.323-7.608 0 0 .844-6.719-1.906-12.385-.935 11.415-12.119 15.214-12.119 26.1 0 5.403 4.264 9.931 10.033 11.235-1.398-.98-2.028-2.62-1.917-4.494.124-2.089.435-3.769 4.286-8.906.117 4.077 1.355 4.716 2.59 5.266 2.379 1.061 3.444 1.935 3.654 4.252.158 1.742-.907 3.177-2.416 4.016 6.073-1.115 10.632-5.778 10.632-11.368 0-10.773-9.046-15.252-9.046-15.252z"/></svg>