<?xml version="1.0" encoding="utf-8"?>
<!-- Generator: Adobe Illustrator 15.1.0, SVG Export Plug-In . SVG Version: 6.00 Build 0)  -->
<!DOCTYPE svg PUBLIC "-//W3C//DTD SVG 1.1 Tiny//EN" "http://www.w3.org/Graphics/SVG/1.1/DTD/svg11-tiny.dtd">
<svg version="1.1" baseProfile="tiny" id="Layer_1" xmlns="http://www.w3.org/2000/svg" xmlns:xlink="http://www.w3.org/1999/xlink"
	 x="0px" y="0px" width="20px" height="20px" viewBox="0 0 20 20" xml:space="preserve">
<g>
	<polygon fill="#FFFFFF" points="9.906,2.845 9.906,17.012 -0.01,9.928 	"/>
	<line fill="none" x1="12.072" y1="2.845" x2="12.072" y2="17.012"/>
	<g>
		<path fill="#FFFFFF" d="M15.617,9.928c0-1.954-1.591-3.543-3.545-3.543v2.254c0.712,0,1.291,0.578,1.291,1.289
			c0,0.712-0.579,1.291-1.291,1.291v2.254C14.026,13.473,15.617,11.882,15.617,9.928z"/>
		<path fill="#FFFFFF" d="M17.363,9.929c0,2.917-2.373,5.29-5.291,5.29v2.254c4.16,0,7.545-3.385,7.545-7.544
			c0-4.16-3.385-7.544-7.545-7.544v2.254C14.99,4.639,17.363,7.012,17.363,9.929z"/>
	</g>
</g>
</svg>
