<?xml version="1.0" encoding="utf-8"?>
<!-- Generator: Adobe Illustrator 15.1.0, SVG Export Plug-In . SVG Version: 6.00 Build 0)  -->
<!DOCTYPE svg PUBLIC "-//W3C//DTD SVG 1.1 Tiny//EN" "http://www.w3.org/Graphics/SVG/1.1/DTD/svg11-tiny.dtd">
<svg version="1.1" baseProfile="tiny" xmlns="http://www.w3.org/2000/svg" xmlns:xlink="http://www.w3.org/1999/xlink" x="0px"
	 y="0px" width="55px" height="55px" viewBox="0 0 55 55" xml:space="preserve">
<g id="Layer_1" display="none">
	<image display="inline" width="55" height="55" xlink:href="../Site/icon/coffeeshop_55x55.png" >
	</image>
</g>
<g id="Layer_4" display="none">
	<image display="inline" width="55" height="55" xlink:href="../Site/icon/waves_55x55.png" >
	</image>
</g>
<g id="Layer_5" display="none">
	<polyline display="inline" fill="none" stroke="#000000" stroke-width="2.2536" stroke-miterlimit="10" points="4.542,31.301 
		9.125,31.301 12.438,25.71 18.313,42.585 22.875,15.21 27.5,38.71 32.25,24.377 36.41,35.166 41,18.21 45.209,31.505 
		50.459,31.505 	"/>
</g>
<g id="Layer_6">
	<circle cx="27.5" cy="31.461" r="4.836"/>
	<polyline points="22.664,31.461 22.664,44.875 32.336,44.875 32.336,31.461 	"/>
	<g>
		<polygon points="20.376,33.519 3.683,39.984 5.039,43.48 20.376,37.54 		"/>
		<path d="M34.623,29.433v2.589l16.694-6.466l-1.355-3.496l-15.475,5.994C34.574,28.5,34.623,28.961,34.623,29.433z"/>
	</g>
	
		<line stroke="#000000" stroke-width="2.2536" stroke-linecap="round" stroke-miterlimit="10" x1="10.773" y1="37.373" x2="9.798" y2="34.804"/>
	
		<line stroke="#000000" stroke-width="2.2536" stroke-linecap="round" stroke-miterlimit="10" x1="43.24" y1="24.744" x2="42.265" y2="22.175"/>
</g>
</svg>
