<?xml version="1.0" encoding="utf-8"?>
<!-- Generator: Adobe Illustrator 15.1.0, SVG Export Plug-In . SVG Version: 6.00 Build 0)  -->
<!DOCTYPE svg PUBLIC "-//W3C//DTD SVG 1.1 Tiny//EN" "http://www.w3.org/Graphics/SVG/1.1/DTD/svg11-tiny.dtd">
<svg version="1.1" baseProfile="tiny" xmlns="http://www.w3.org/2000/svg" xmlns:xlink="http://www.w3.org/1999/xlink" x="0px"
	 y="0px" width="55px" height="55px" viewBox="0 0 55 55" xml:space="preserve">
<g id="Layer_1" display="none">
	<image display="inline" width="55" height="55" xlink:href="../Site/icon/coffeeshop_55x55.png" >
	</image>
</g>
<g id="Layer_2">
	<path d="M27,42.388c0,0-5.063-0.24-7.617,1.809c-1.439,1.154-1.525,3.413-1.525,3.413H27V42.388z"/>
	<path d="M9.617,22.635H27v13.453C27,36.088,9.617,35.486,9.617,22.635z"/>
	<path d="M24.119,42.557c0,0,3.187-3.515-0.771-7.02c-3.957-3.507,3.076-0.522,3.076-0.522v9.308"/>
	<path d="M27,42.388c0,0,5.063-0.24,7.616,1.809c1.439,1.154,1.525,3.413,1.525,3.413H27V42.388z"/>
	<path d="M44.383,22.635H27v13.453C27,36.088,44.383,35.486,44.383,22.635z"/>
	<path d="M30.06,42.557c0,0-3.361-3.515,0.813-7.02c4.176-3.507-3.245-0.522-3.245-0.522v9.308"/>
	<path fill="none" stroke="#000000" stroke-width="2.2536" stroke-linecap="square" stroke-miterlimit="10" d="M38.309,14.773"/>
	<path fill="none" stroke="#000000" stroke-width="2.2536" stroke-miterlimit="10" d="M27,22.635V12.482c0,0,0-5.572-5.812-5.572
		c-5.498,0-5.498,7.317-5.498,7.317"/>
	<rect x="25.9" y="35.359" width="2.226" height="7.808"/>
	<ellipse cx="12.5" cy="16.032" rx="1.313" ry="1.258"/>
	<ellipse cx="16.996" cy="18.548" rx="1.313" ry="1.258"/>
	<path fill="none" stroke="#000000" stroke-width="2.2536" stroke-miterlimit="10" d="M27,22.635V12.482c0,0,0-5.572,5.812-5.572
		c5.497,0,5.497,6.118,5.497,6.118"/>
	<ellipse cx="34.379" cy="15.725" rx="1.313" ry="1.258"/>
	<ellipse cx="42.82" cy="14.048" rx="1.313" ry="1.259"/>
	<ellipse cx="38.976" cy="17.922" rx="1.313" ry="1.258"/>
</g>
</svg>
