<?xml version="1.0" encoding="utf-8"?>
<!-- Generator: Adobe Illustrator 15.1.0, SVG Export Plug-In . SVG Version: 6.00 Build 0)  -->
<!DOCTYPE svg PUBLIC "-//W3C//DTD SVG 1.1 Tiny//EN" "http://www.w3.org/Graphics/SVG/1.1/DTD/svg11-tiny.dtd">
<svg version="1.1" baseProfile="tiny" xmlns="http://www.w3.org/2000/svg" xmlns:xlink="http://www.w3.org/1999/xlink" x="0px"
	 y="0px" width="55px" height="55px" viewBox="0 0 55 55" xml:space="preserve">
<g id="Layer_2" display="none">
	
		<image display="inline" width="55" height="55" xlink:href="rain_55x55.png"  transform="matrix(0.9999 0 0 0.9999 0.0039 0.1699)">
	</image>
</g>
<g id="Layer_3">
	<path d="M22.56,16.356h0.008l-2.546-5.459l-2.591,5.459h0.008c-0.172,0.366-0.277,0.771-0.277,1.204
		c0,1.567,1.271,2.837,2.837,2.837s2.837-1.27,2.837-2.837C22.837,17.127,22.732,16.722,22.56,16.356z"/>
	<path d="M30.061,16.356h0.008l-2.546-5.459l-2.591,5.459h0.008c-0.172,0.366-0.277,0.771-0.277,1.204
		c0,1.567,1.271,2.837,2.837,2.837c1.566,0,2.838-1.27,2.838-2.837C30.338,17.127,30.232,16.722,30.061,16.356z"/>
	<path d="M37.561,16.356h0.008l-2.546-5.459l-2.591,5.459h0.008c-0.172,0.366-0.277,0.771-0.277,1.204
		c0,1.567,1.271,2.837,2.838,2.837s2.838-1.27,2.838-2.837C37.838,17.127,37.732,16.722,37.561,16.356z"/>
	<path d="M22.56,28.209h0.008l-2.546-5.459l-2.591,5.459h0.008c-0.172,0.367-0.277,0.771-0.277,1.204
		c0,1.567,1.271,2.837,2.837,2.837s2.837-1.27,2.837-2.837C22.837,28.98,22.732,28.576,22.56,28.209z"/>
	<path d="M30.061,28.209h0.008l-2.546-5.459l-2.591,5.459h0.008c-0.172,0.367-0.277,0.771-0.277,1.204
		c0,1.567,1.271,2.837,2.837,2.837c1.566,0,2.838-1.27,2.838-2.837C30.338,28.98,30.232,28.576,30.061,28.209z"/>
	<path d="M37.561,28.209h0.008l-2.546-5.459l-2.591,5.459h0.008c-0.172,0.367-0.277,0.771-0.277,1.204
		c0,1.567,1.271,2.837,2.838,2.837s2.838-1.27,2.838-2.837C37.838,28.98,37.732,28.576,37.561,28.209z"/>
	<path d="M22.56,40.063h0.008l-2.546-5.459l-2.591,5.459h0.008c-0.172,0.367-0.277,0.771-0.277,1.204
		c0,1.567,1.271,2.837,2.837,2.837s2.837-1.27,2.837-2.837C22.837,40.834,22.732,40.43,22.56,40.063z"/>
	<path d="M30.061,40.063h0.008l-2.546-5.459l-2.591,5.459h0.008c-0.172,0.367-0.277,0.771-0.277,1.204
		c0,1.567,1.271,2.837,2.837,2.837c1.566,0,2.838-1.27,2.838-2.837C30.338,40.834,30.232,40.43,30.061,40.063z"/>
	<path d="M37.561,40.063h0.008l-2.546-5.459l-2.591,5.459h0.008c-0.172,0.367-0.277,0.771-0.277,1.204
		c0,1.567,1.271,2.837,2.838,2.837s2.838-1.27,2.838-2.837C37.838,40.834,37.732,40.43,37.561,40.063z"/>
</g>
</svg>
