<?xml version="1.0" encoding="utf-8"?>
<!-- Generator: Adobe Illustrator 15.1.0, SVG Export Plug-In . SVG Version: 6.00 Build 0)  -->
<!DOCTYPE svg PUBLIC "-//W3C//DTD SVG 1.1 Tiny//EN" "http://www.w3.org/Graphics/SVG/1.1/DTD/svg11-tiny.dtd">
<svg version="1.1" baseProfile="tiny" id="Layer_1" xmlns="http://www.w3.org/2000/svg" xmlns:xlink="http://www.w3.org/1999/xlink"
	 x="0px" y="0px" width="20px" height="20px" viewBox="0 0 20 20" xml:space="preserve">
<path fill="#FFFFFF" d="M7.188,17.662c-2.023,0-3.482-1.279-3.482-2.816c0-1.507,1.811-2.762,3.833-2.739
	c0.472,0.005,0.911,0.081,1.311,0.21c1.097,0.764,1.884,1.194,2.106,2.064c0.042,0.177,0.064,0.357,0.064,0.543
	C11.02,16.462,10.029,17.662,7.188,17.662 M7.719,8.647c-1.357-0.041-2.647-1.518-2.881-3.3C4.604,3.565,5.514,2.201,6.87,2.241
	c1.356,0.041,2.647,1.47,2.881,3.252S9.075,8.688,7.719,8.647 M10.531,11.286c-0.476-0.337-1.385-1.156-1.385-1.638
	c0-0.565,0.16-0.843,1.01-1.507c0.871-0.681,1.488-1.638,1.488-2.75c0-1.325-0.59-2.616-1.697-3.043h1.67l1.178-0.852H7.527
	c-2.36,0-4.583,1.789-4.583,3.861c0,2.118,1.61,3.827,4.013,3.827c0.167,0,0.328-0.003,0.488-0.015
	c-0.156,0.298-0.269,0.635-0.269,0.983c0,0.589,0.317,1.066,0.718,1.456c-0.303,0-0.596,0.009-0.913,0.009
	c-2.925,0-5.177,1.862-5.177,3.795c0,1.902,2.469,3.092,5.393,3.092c3.334,0,5.177-1.892,5.177-3.795
	C12.374,13.184,11.924,12.27,10.531,11.286 M18.195,8.802h-2.051v-2.05h-1.65v2.05h-2.05v1.651h2.05v2.051h1.65v-2.051h2.051V8.802z
	"/>
</svg>
