<?xml version="1.0" encoding="utf-8"?>
<!-- Generator: Adobe Illustrator 15.1.0, SVG Export Plug-In . SVG Version: 6.00 Build 0)  -->
<!DOCTYPE svg PUBLIC "-//W3C//DTD SVG 1.1 Tiny//EN" "http://www.w3.org/Graphics/SVG/1.1/DTD/svg11-tiny.dtd">
<svg version="1.1" baseProfile="tiny" id="Layer_1" xmlns="http://www.w3.org/2000/svg" xmlns:xlink="http://www.w3.org/1999/xlink"
	 x="0px" y="0px" width="20px" height="20px" viewBox="0 0 20 20" xml:space="preserve">
<path fill="#FFFFFF" d="M18.519,4.716c-0.626,0.278-1.301,0.466-2.007,0.55c0.722-0.433,1.275-1.117,1.536-1.933
	c-0.676,0.4-1.423,0.691-2.22,0.847c-0.637-0.679-1.546-1.104-2.552-1.104c-1.929,0-3.494,1.565-3.494,3.495
	c0,0.274,0.03,0.541,0.09,0.796C6.967,7.222,4.393,5.832,2.667,3.716C2.367,4.234,2.194,4.834,2.194,5.475
	c0,1.211,0.617,2.282,1.555,2.909C3.177,8.366,2.637,8.208,2.166,7.947V7.99c0,1.694,1.205,3.107,2.805,3.428
	c-0.293,0.082-0.602,0.123-0.921,0.123c-0.225,0-0.445-0.021-0.657-0.063c0.444,1.389,1.735,2.399,3.265,2.426
	c-1.196,0.938-2.704,1.497-4.341,1.497c-0.282,0-0.561-0.016-0.834-0.048c1.547,0.99,3.384,1.569,5.358,1.569
	c6.43,0,9.945-5.325,9.945-9.945c0-0.152-0.003-0.303-0.009-0.452C17.458,6.033,18.051,5.417,18.519,4.716"/>
</svg>
