<?xml version="1.0" encoding="utf-8"?>
<!-- Generator: Adobe Illustrator 15.1.0, SVG Export Plug-In . SVG Version: 6.00 Build 0)  -->
<!DOCTYPE svg PUBLIC "-//W3C//DTD SVG 1.1 Tiny//EN" "http://www.w3.org/Graphics/SVG/1.1/DTD/svg11-tiny.dtd">
<svg version="1.1" baseProfile="tiny" xmlns="http://www.w3.org/2000/svg" xmlns:xlink="http://www.w3.org/1999/xlink" x="0px"
	 y="0px" width="55px" height="55px" viewBox="0 0 55 55" xml:space="preserve">
<g id="Layer_1" display="none">
	<image display="inline" width="55" height="55" xlink:href="../Site/icon/coffeeshop_55x55.png" >
	</image>
</g>
<g id="Layer_2" display="none">
	<path display="inline" d="M27,42.388c0,0-5.063-0.24-7.617,1.809c-1.439,1.154-1.525,3.413-1.525,3.413H27V42.388z"/>
	<path display="inline" d="M9.617,22.635H27v13.453C27,36.088,9.617,35.486,9.617,22.635z"/>
	<path display="inline" d="M24.119,42.557c0,0,3.187-3.515-0.771-7.02c-3.957-3.507,3.076-0.522,3.076-0.522v9.308"/>
	<path display="inline" d="M27,42.388c0,0,5.063-0.24,7.616,1.809c1.439,1.154,1.525,3.413,1.525,3.413H27V42.388z"/>
	<path display="inline" d="M44.383,22.635H27v13.453C27,36.088,44.383,35.486,44.383,22.635z"/>
	<path display="inline" d="M30.06,42.557c0,0-3.361-3.515,0.813-7.02c4.176-3.507-3.245-0.522-3.245-0.522v9.308"/>
	<path display="inline" fill="none" stroke="#000000" stroke-width="2.2536" stroke-linecap="square" stroke-miterlimit="10" d="
		M38.309,14.773"/>
	<path display="inline" fill="none" stroke="#000000" stroke-width="2.2536" stroke-miterlimit="10" d="M27,22.635V12.482
		c0,0,0-5.572-5.812-5.572c-5.498,0-5.498,7.317-5.498,7.317"/>
	<rect x="25.9" y="35.359" display="inline" width="2.226" height="7.808"/>
	<ellipse display="inline" cx="12.5" cy="16.032" rx="1.313" ry="1.258"/>
	<ellipse display="inline" cx="16.996" cy="18.548" rx="1.313" ry="1.258"/>
	<path display="inline" fill="none" stroke="#000000" stroke-width="2.2536" stroke-miterlimit="10" d="M27,22.635V12.482
		c0,0,0-5.572,5.812-5.572c5.497,0,5.497,6.118,5.497,6.118"/>
	<ellipse display="inline" cx="34.379" cy="15.725" rx="1.313" ry="1.258"/>
	<ellipse display="inline" cx="42.82" cy="14.048" rx="1.313" ry="1.259"/>
	<ellipse display="inline" cx="38.976" cy="17.922" rx="1.313" ry="1.258"/>
</g>
<g id="Layer_3" display="none">
	<path display="inline" d="M40.931,36.81c-11.038-8.224-26.862-6.421-26.862,0S20.083,48.435,27.5,48.435
		C34.918,48.435,40.931,43.23,40.931,36.81z"/>
	<path display="inline" d="M28.094,23.094c0,0,0.844-6.719-1.906-12.385C25.253,22.125,14.069,25.924,14.069,36.81
		c4.622,13.165,22.4-5.091,22.4-5.091S27.229,31.297,28.094,23.094z"/>
	<path display="inline" d="M31.885,21.559c0,0,9.046,4.479,9.046,15.251C36.308,49.975,24.75,31,24.75,31
		S37.469,36.344,31.885,21.559z"/>
	<path display="inline" fill="#FFFFFF" d="M32.715,44.162c-0.21-2.317-1.275-3.191-3.654-4.252c-1.235-0.55-2.473-1.188-2.59-5.266
		c-3.851,5.138-4.162,6.817-4.286,8.906c-0.16,2.709,1.187,4.96,4.241,5.379C29.479,49.35,32.993,47.231,32.715,44.162z"/>
</g>
<g id="Layer_5">
	<path d="M31.885,21.559c1.918,5.08,1.677,7.783,0.532,9.144c-2.358-1.062-4.785-3.222-4.323-7.608c0,0,0.844-6.719-1.906-12.385
		C25.253,22.125,14.069,25.924,14.069,36.81c0,5.403,4.264,9.931,10.033,11.235c-1.398-0.98-2.028-2.62-1.917-4.494
		c0.124-2.089,0.435-3.769,4.286-8.906c0.117,4.077,1.355,4.716,2.59,5.266c2.379,1.061,3.444,1.935,3.654,4.252
		c0.158,1.742-0.907,3.177-2.416,4.016c6.073-1.115,10.632-5.778,10.632-11.368C40.931,26.038,31.885,21.559,31.885,21.559z"/>
</g>
<g id="Layer_6" display="none">
	<path display="inline" d="M31.885,21.559c2.615,5.004,1.51,8.269,0.365,9.629c-0.156-5.875-1.219-5.344-4.031-9.031
		c0,0-2.552-2.698,0.448-9.906c-7.354,6.563-13.792,17.065-13.792,23.938c0,5.403,2.917,10.979,10.292,12.188
		c-1.398-0.98-3.61-4.292-3.5-6.166c0.124-2.089,0.732-4.154,4.583-9.292c0.117,4.077,1.575,6.443,2.811,6.993
		c2.379,1.061,3.444,1.935,3.654,4.252c0.158,1.742-0.907,3.177-2.416,4.016c6.073-1.115,9.951-5.65,9.951-11.24
		C40.25,26.166,31.885,21.559,31.885,21.559z"/>
</g>
</svg>
