<svg baseProfile="tiny" xmlns="http://www.w3.org/2000/svg" width="190" height="15"><g fill="#FFF"><path d="M4.783 5.587c0-1.789 1.084-2.646 2.975-2.646 1.916 0 4.235.807 4.159.807l.403-1.688c-1.462-.53-3.025-.883-4.563-.883-2.975 0-4.865 1.563-4.865 4.487 0 5.729 8.228 4.424 8.771 8.161h1.933c-.114-5.786-8.813-4.03-8.813-8.238zM23.154 10.125c0-3.605 1.412-7.31 5.117-7.31 3.403 0 5.092 3.604 5.092 7.185 0 1.369-.184 2.684-.565 3.824h1.975c.32-1.135.481-2.387.481-3.699 0-4.991-2.218-8.949-7.033-8.949-4.764 0-6.982 3.958-6.982 8.949 0 1.313.156 2.564.469 3.699h2.005c-.374-1.105-.559-2.375-.559-3.699zM55.892 12.57V1.428h-1.916v11.445c0 .337-.027.649-.065.951h1.901c.042-.4.08-.808.08-1.254zM45.657 12.873V1.428h-1.916V12.57c0 .445.037.854.08 1.254h1.897a7.988 7.988 0 0 1-.061-.951zM67.48 4.958l5.327 8.866h2L67.48 1.428h-1.966v12.396h1.966zM76.152 1.428h1.89v12.396h-1.89zM89.708 3.067h2.52c3.152 0 6.15 2.193 6.15 6.353 0 1.743-.369 3.213-.988 4.404h2.25c.504-1.234.781-2.645.781-4.203 0-4.739-3.227-8.193-8.292-8.193h-4.463v12.396h2.043V3.067zM110.9 10.781h1.563c2.395 0 3.277.453 4.209 2.621l.182.422h2.045l-.285-.674c-.957-2.27-1.361-2.621-2.975-3 2.066-.277 3.631-2.244 3.631-4.235 0-2.823-1.664-4.513-5.168-4.513h-5.092v12.421h1.891v-3.042zm0-7.765h3.1c1.967 0 3.15.983 3.15 2.95 0 1.764-1.26 3.202-3.402 3.202H110.9V3.016zM130.025 10.125c0-3.605 1.412-7.31 5.117-7.31 3.404 0 5.092 3.604 5.092 7.185 0 1.369-.184 2.684-.566 3.824h1.975c.32-1.135.482-2.387.482-3.699 0-4.991-2.217-8.949-7.033-8.949-4.764 0-6.982 3.958-6.982 8.949 0 1.313.156 2.564.469 3.699h2.004c-.374-1.105-.558-2.375-.558-3.699zM157.975 8.84l1.252 4.984h1.628l-2.201-7.606h-1.41l-2.381 7.606h1.576zM150.814 1.454h-2.166l2.883 12.37h1.742zM166.924 1.454h-1.992l-2.539 12.37h1.591zM176.545 4.958l5.326 8.866h2l-7.326-12.396h-1.965v12.396h1.965zM185.217 1.428h1.891v12.396h-1.891z"/></g></svg>