<?xml version="1.0" encoding="utf-8"?>
<!-- Generator: Adobe Illustrator 15.1.0, SVG Export Plug-In . SVG Version: 6.00 Build 0)  -->
<!DOCTYPE svg PUBLIC "-//W3C//DTD SVG 1.1 Tiny//EN" "http://www.w3.org/Graphics/SVG/1.1/DTD/svg11-tiny.dtd">
<svg version="1.1" baseProfile="tiny" id="Soundrown_Logo"
	 xmlns="http://www.w3.org/2000/svg" xmlns:xlink="http://www.w3.org/1999/xlink" x="0px" y="0px" width="190px" height="15px"
	 viewBox="0 0 190 15" xml:space="preserve">
<g>
	<path fill="#FFFFFF" d="M4.783,5.587c0-1.789,1.084-2.646,2.975-2.646c1.916,0,4.235,0.807,4.159,0.807l0.403-1.688
		c-1.462-0.53-3.025-0.883-4.563-0.883c-2.975,0-4.865,1.563-4.865,4.487c0,5.729,8.228,4.424,8.771,8.161h1.933
		C13.482,8.039,4.783,9.795,4.783,5.587z"/>
	<path fill="#FFFFFF" d="M23.154,10.125c0-3.605,1.412-7.31,5.117-7.31c3.403,0,5.092,3.604,5.092,7.185
		c0,1.369-0.184,2.684-0.565,3.824h1.975c0.32-1.135,0.481-2.387,0.481-3.699c0-4.991-2.218-8.949-7.033-8.949
		c-4.764,0-6.982,3.958-6.982,8.949c0,1.313,0.156,2.564,0.469,3.699h2.005C23.339,12.719,23.154,11.449,23.154,10.125z"/>
	<path fill="#FFFFFF" d="M55.892,12.57V1.428h-1.916v11.445c0,0.337-0.027,0.649-0.065,0.951h1.901
		C55.854,13.424,55.892,13.016,55.892,12.57z"/>
	<path fill="#FFFFFF" d="M45.657,12.873V1.428h-1.916V12.57c0,0.445,0.037,0.854,0.08,1.254h1.897
		C45.682,13.521,45.657,13.207,45.657,12.873z"/>
	<polygon fill="#FFFFFF" points="67.48,4.958 72.807,13.824 74.807,13.824 67.48,1.428 65.514,1.428 65.514,13.824 67.48,13.824 	
		"/>
	<rect x="76.152" y="1.428" fill="#FFFFFF" width="1.89" height="12.396"/>
	<path fill="#FFFFFF" d="M89.708,3.067h2.52c3.152,0,6.15,2.193,6.15,6.353c0,1.743-0.369,3.213-0.988,4.404h2.25
		c0.504-1.234,0.781-2.645,0.781-4.203c0-4.739-3.227-8.193-8.292-8.193h-4.463v12.396h2.043V3.067z"/>
	<path fill="#FFFFFF" d="M110.9,10.781h1.563c2.395,0,3.277,0.453,4.209,2.621l0.182,0.422h2.045l-0.285-0.674
		c-0.957-2.27-1.361-2.621-2.975-3c2.066-0.277,3.631-2.244,3.631-4.235c0-2.823-1.664-4.513-5.168-4.513h-5.092v12.421h1.891
		V10.781z M110.9,3.016h3.1c1.967,0,3.15,0.983,3.15,2.95c0,1.764-1.26,3.202-3.402,3.202H110.9V3.016z"/>
	<path fill="#FFFFFF" d="M130.025,10.125c0-3.605,1.412-7.31,5.117-7.31c3.404,0,5.092,3.604,5.092,7.185
		c0,1.369-0.184,2.684-0.566,3.824h1.975c0.32-1.135,0.482-2.387,0.482-3.699c0-4.991-2.217-8.949-7.033-8.949
		c-4.764,0-6.982,3.958-6.982,8.949c0,1.313,0.156,2.564,0.469,3.699h2.004C130.209,12.719,130.025,11.449,130.025,10.125z"/>
	<polygon fill="#FFFFFF" points="157.975,8.84 159.227,13.824 160.855,13.824 158.654,6.218 157.244,6.218 154.863,13.824 
		156.439,13.824 	"/>
	<polygon fill="#FFFFFF" points="150.814,1.454 148.648,1.454 151.531,13.824 153.273,13.824 	"/>
	<polygon fill="#FFFFFF" points="166.924,1.454 164.932,1.454 162.393,13.824 163.984,13.824 	"/>
	<polygon fill="#FFFFFF" points="176.545,4.958 181.871,13.824 183.871,13.824 176.545,1.428 174.58,1.428 174.58,13.824 
		176.545,13.824 	"/>
	<rect x="185.217" y="1.428" fill="#FFFFFF" width="1.891" height="12.396"/>
</g>
</svg>
