<svg baseProfile="tiny" xmlns="http://www.w3.org/2000/svg" width="20" height="20"><path fill="#FFF" d="M7.188 17.662c-2.023 0-3.482-1.279-3.482-2.816 0-1.507 1.811-2.762 3.833-2.739.472.005.911.081 1.311.21 1.097.764 1.884 1.194 2.106 2.064.042.177.064.357.064.543 0 1.538-.991 2.738-3.832 2.738m.531-9.015c-1.357-.041-2.647-1.518-2.881-3.3-.234-1.782.676-3.146 2.032-3.106 1.356.041 2.647 1.47 2.881 3.252s-.676 3.195-2.032 3.154m2.812 2.639c-.476-.337-1.385-1.156-1.385-1.638 0-.565.16-.843 1.01-1.507.871-.681 1.488-1.638 1.488-2.75 0-1.325-.59-2.616-1.697-3.043h1.67l1.178-.852H7.527c-2.36 0-4.583 1.789-4.583 3.861 0 2.118 1.61 3.827 4.013 3.827.167 0 .328-.003.488-.015-.156.298-.269.635-.269.983 0 .589.317 1.066.718 1.456-.303 0-.596.009-.913.009-2.925 0-5.177 1.862-5.177 3.795 0 1.902 2.469 3.092 5.393 3.092 3.334 0 5.177-1.892 5.177-3.795 0-1.525-.45-2.439-1.843-3.423m7.664-2.484h-2.051v-2.05h-1.65v2.05h-2.05v1.651h2.05v2.051h1.65v-2.051h2.051V8.802z"/></svg>