<svg baseProfile="tiny" xmlns="http://www.w3.org/2000/svg" width="55" height="55"><path d="M22.56 16.356h.008l-2.546-5.459-2.591 5.459h.008a2.82 2.82 0 0 0-.277 1.204 2.837 2.837 0 0 0 5.674 0 2.804 2.804 0 0 0-.276-1.204zM30.061 16.356h.008l-2.546-5.459-2.591 5.459h.008a2.82 2.82 0 0 0-.277 1.204 2.837 2.837 0 0 0 5.675 0c0-.433-.106-.838-.277-1.204zM37.561 16.356h.008l-2.546-5.459-2.591 5.459h.008a2.82 2.82 0 0 0-.277 1.204 2.838 2.838 0 0 0 5.676 0 2.85 2.85 0 0 0-.278-1.204zM22.56 28.209h.008l-2.546-5.459-2.591 5.459h.008a2.823 2.823 0 0 0-.277 1.204 2.837 2.837 0 0 0 5.674 0 2.807 2.807 0 0 0-.276-1.204zM30.061 28.209h.008l-2.546-5.459-2.591 5.459h.008a2.823 2.823 0 0 0-.277 1.204 2.837 2.837 0 0 0 5.675 0c0-.433-.106-.837-.277-1.204zM37.561 28.209h.008l-2.546-5.459-2.591 5.459h.008a2.823 2.823 0 0 0-.277 1.204 2.838 2.838 0 0 0 5.676 0 2.853 2.853 0 0 0-.278-1.204zM22.56 40.063h.008l-2.546-5.459-2.591 5.459h.008a2.823 2.823 0 0 0-.277 1.204 2.837 2.837 0 0 0 5.674 0 2.807 2.807 0 0 0-.276-1.204zM30.061 40.063h.008l-2.546-5.459-2.591 5.459h.008a2.823 2.823 0 0 0-.277 1.204 2.837 2.837 0 0 0 5.675 0c0-.433-.106-.837-.277-1.204zM37.561 40.063h.008l-2.546-5.459-2.591 5.459h.008a2.823 2.823 0 0 0-.277 1.204 2.838 2.838 0 0 0 5.676 0 2.853 2.853 0 0 0-.278-1.204z"/></svg>