<svg baseProfile="tiny" xmlns="http://www.w3.org/2000/svg" width="55" height="55"><path d="M27 42.388s-5.063-.24-7.617 1.809c-1.439 1.154-1.525 3.413-1.525 3.413H27v-5.222zM9.617 22.635H27v13.453S9.617 35.486 9.617 22.635z"/><path d="M24.119 42.557s3.187-3.515-.771-7.02c-3.957-3.507 3.076-.522 3.076-.522v9.308M27 42.388s5.063-.24 7.616 1.809c1.439 1.154 1.525 3.413 1.525 3.413H27v-5.222zM44.383 22.635H27v13.453s17.383-.602 17.383-13.453z"/><path d="M30.06 42.557s-3.361-3.515.813-7.02c4.176-3.507-3.245-.522-3.245-.522v9.308"/><path fill="none" stroke="#000" stroke-width="2.254" stroke-miterlimit="10" d="M27 22.635V12.482s0-5.572-5.812-5.572c-5.498 0-5.498 7.317-5.498 7.317"/><path d="M25.9 35.359h2.226v7.808H25.9z"/><ellipse cx="12.5" cy="16.032" rx="1.313" ry="1.258"/><ellipse cx="16.996" cy="18.548" rx="1.313" ry="1.258"/><path fill="none" stroke="#000" stroke-width="2.254" stroke-miterlimit="10" d="M27 22.635V12.482s0-5.572 5.812-5.572c5.497 0 5.497 6.118 5.497 6.118"/><ellipse cx="34.379" cy="15.725" rx="1.313" ry="1.258"/><ellipse cx="42.82" cy="14.048" rx="1.313" ry="1.259"/><ellipse cx="38.976" cy="17.922" rx="1.313" ry="1.258"/></svg>